# xmcd
#
# Track frame offsets:
#	150
#	16317
#	34572
#	58981
#	75650
#	91811
#	107703
#	124014
#	143910
#	161975
#	178028
#	196055
#	216278
#	233808
#	253058
#	271843
#	285124
#	304451
#	321031
#
# Disc length: 4509
#
# Revision: 2
# Processed by: cddbd v1.5.1PL0 Copyright (c) Steve Scherf et al.
# Submitted via: FreeRIP 2.35 
# Normalized: r0:TDELIM( - ),TSWAP
#
DISCID=08119b13
DTITLE=Various Artist - She
DYEAR=1999
DGENRE=Country
TTITLE0=Shania Twain - Dont Be Stupid
TTITLE1=Texas - Summer Son
TTITLE2=Sheryl Crow - If It Makes You Happy
TTITLE3=The Cranberries - Just My Imagination
TTITLE4=Janet Jackson - Runaway
TTITLE5=Britney Spears - Baby One More time
TTITLE6=Jessica - How Will I Know
TTITLE7=Jennifer Lopez - If You Had My Love
TTITLE8=Lauryn Hill - Doo Wop
TTITLE9=Mariah Carey - Without You
TTITLE10=Gloria Estefan - Dont Wanna Lose You
TTITLE11=Celine Dion - Where Does My Heart Beat Now
TTITLE12=Des Ree - Feel So High
TTITLE13=The Corrs - What Can I Do
TTITLE14=Gabrielle - Sunshine
TTITLE15=Mary J Blige - Natural Woman
TTITLE16=Anggun - Snow In Sahara
TTITLE17=Sade - Your Love Is King
TTITLE18=Lisa Stansfield - All Women
EXTD=
EXTT0=
EXTT1=
EXTT2=
EXTT3=
EXTT4=
EXTT5=
EXTT6=
EXTT7=
EXTT8=
EXTT9=
EXTT10=
EXTT11=
EXTT12=
EXTT13=
EXTT14=
EXTT15=
EXTT16=
EXTT17=
EXTT18=
PLAYORDER=
